PathFileType	4	(X/Y/Z)	60_2_63_p1_0-367.trc
DataRate	CameraRate	NumFrames	NumMarkers	Units	OrigDataRate	OrigDataStartFrame	OrigNumFrames
60.0	60.0	6	27	m	60.0	46	368
Frame#	Time	RHip			RKnee			RAnkle			RBigToe			RSmallToe			RHeel			LHip			LKnee			LAnkle			LBigToe			LSmallToe			LHeel			Neck			Head			Nose			RShoulder			RElbow			RWrist			RThumb			RIndex			RPinky			LShoulder			LElbow			LWrist			LThumb			LIndex			LPinky			
		X1	Y1	Z1	X2	Y2	Z2	X3	Y3	Z3	X4	Y4	Z4	X5	Y5	Z5	X6	Y6	Z6	X7	Y7	Z7	X8	Y8	Z8	X9	Y9	Z9	X10	Y10	Z10	X11	Y11	Z11	X12	Y12	Z12	X13	Y13	Z13	X14	Y14	Z14	X15	Y15	Z15	X16	Y16	Z16	X17	Y17	Z17	X18	Y18	Z18	X19	Y19	Z19	X20	Y20	Z20	X21	Y21	Z21	X22	Y22	Z22	X23	Y23	Z23	X24	Y24	Z24	X25	Y25	Z25	X26	Y26	Z26	X27	Y27	Z27	
46	0.7666666666666667	0.3347406183839785	0.4872560298432206	-0.20521862388962572	0.31825841786760917	0.6304011865896989	0.18257608130170017	0.30238088691838116	0.8563010864792592	0.5628276620555496	0.29122074284936167	0.6395571067696579	0.6904000866060451	0.356307506960507	0.6896211590021376	0.6728304508903523	0.2795541032004789	0.9193640959777407	0.5940953400109215	0.1085714801657329	0.4742684863761097	-0.2085772341159806	0.12164471147324254	0.6427638605779599	0.19221592695556808	0.131413721134648	0.8054207858562289	0.569239222232857	0.13015126147115605	0.6524611618683058	0.6811235689462873	0.07021880282572954	0.6779955214915727	0.6614214281565123	0.1463746698591966	0.8871503302736071	0.6048197959322562	0.23623393739660725	0.26539997589508213	-0.7503808553920748	0.23838675306300378	0.1336884061506123	-0.9623050650980006	0.226478490095199	0.11023056684582716	-0.8238798236222233	0.3835827676339911	0.27066524721802165	-0.6604196108424741	0.436501617851118	0.42589911300496835	-0.43096938601201623	0.36388013927722207	0.21797482440158367	-0.22808154445009582	0.3002149382804996	0.13579459854408765	-0.15630080004595112	0.3137902222504227	0.12025211982952297	-0.14231139149815736	0.3578552763358626	0.23098076706019458	-0.1323920639085214	0.07576339246864078	0.289952993528825	-0.672932227537546	0.004484335907108566	0.4124351631003499	-0.43475375162870383	0.06879063827418187	0.3071389400321023	-0.21497434450725178	0.11238920527684784	0.20140283703092618	-0.15338090122847556	0.09559410660006651	0.18740213457403143	-0.12449107835227302	0.06235360824227	0.23425755915770707	-0.1138235708605486
47	0.7833333333333333	0.3347223638490602	0.4871064671046244	-0.20548945086114376	0.31502020910045386	0.6143873536552957	0.1773262814699374	0.29800772683655186	0.8750734896289388	0.5662668577440103	0.29148524738362075	0.6402668298759571	0.6898550579380271	0.3528414218430192	0.67616078187026	0.6693256656091792	0.27952271988795774	0.9194647909008816	0.5937681023784354	0.11139636431716933	0.4872754505270013	-0.20928013857410582	0.12160107213606364	0.642613424654053	0.1922286535135365	0.13071151827313432	0.8022457773190366	0.5645603207124072	0.12730168678440548	0.6371143409931671	0.6778143047512107	0.07046074026876023	0.6783729961921889	0.6612166696949214	0.14658916443627232	0.8869098709679314	0.6043584935293062	0.23646546686703687	0.2671348046157061	-0.7467933021779836	0.24234462091590753	0.13530772419352227	-0.9629217232608888	0.22654350928257105	0.1101947761432108	-0.8238351540279076	0.38042706056296194	0.28374234314180674	-0.6629957587321662	0.4361236736059955	0.42667560498821605	-0.42742251928757224	0.36732456245918654	0.2292754587204773	-0.22920698858262523	0.30429705571218535	0.12336717362970208	-0.1563978990084874	0.3144448461241077	0.11944264100988485	-0.14318109041723046	0.3586574695523763	0.23101861257199177	-0.13573000389353432	0.0756211675455277	0.2907932672913851	-0.6695307116126813	0.004807182681329852	0.4151061802298405	-0.4306622581453706	0.06600151389161708	0.29498274645377864	-0.21433574825776158	0.10586162179138565	0.19957023218320807	-0.1564459361589757	0.0896474248794116	0.1972677943882298	-0.12778684137755772	0.05779885250470786	0.2305425028203251	-0.1174924856795063
48	0.8	0.33482892109110823	0.4865487534305591	-0.20576072514345256	0.3175366281632632	0.6316542244506074	0.18647077808544626	0.2979905523923324	0.8750493826128429	0.5662021175491394	0.291373687014274	0.6397507917380717	0.6902107039289704	0.3564871214678177	0.6898671383640467	0.672586293805928	0.2753547741076486	0.9038155857109177	0.5910575164946072	0.11216220726018622	0.49055957324497	-0.20149226378125823	0.12169447071434648	0.6424815231013766	0.1922271152256915	0.1308256352337008	0.8015629261900115	0.5642222018310021	0.12697618628033439	0.6369382396461953	0.6730585954423569	0.07066028626988774	0.67786030174964	0.6604715856471209	0.1467243313008939	0.8863678801019717	0.6036343521066058	0.23645247381232778	0.2673443615032393	-0.7466496649679653	0.23836493513466298	0.13343059466424834	-0.9622176298544246	0.23057149929397544	0.11077838656848715	-0.824178524079276	0.38516644076424794	0.2871504726941925	-0.6605703968057287	0.4360137463262853	0.4270965617625018	-0.4273238907536897	0.37047649636367774	0.21552778121851676	-0.23217364080003078	0.31160819362050124	0.11062062271581553	-0.15915574026887763	0.3221676982626747	0.12991747092095104	-0.14477629749282497	0.3665348262650811	0.2197426677024282	-0.13602353185641997	0.07565290336304197	0.29233820587755893	-0.6658248730103083	0.005215345111933827	0.4185097505051803	-0.423048069391222	0.054337234815672604	0.2935009666563995	-0.21413327007192107	0.10202941646810325	0.18373215201850224	-0.16044924945931147	0.08197438542075589	0.1823525333072139	-0.1307131679726843	0.05521486674269861	0.21927539160408388	-0.11686352844255299
49	0.8166666666666667	0.3350493176456632	0.4879686331891056	-0.20148887313478372	0.31354764673436103	0.6168108185022755	0.18554042087504463	0.2979336852242797	0.8748977763391894	0.566033693979551	0.2913820764462801	0.6399438749990489	0.6901629103416292	0.3566733690424856	0.6903882462236003	0.6723976945748346	0.2753484556347098	0.9037955468079591	0.5908263019990907	0.11215578805979526	0.49049488559405574	-0.20145866897778156	0.12171091606102302	0.6423973023629908	0.19210891262795615	0.13197360191237162	0.8002241442761822	0.5598871782209079	0.1270044526548418	0.6371260396096615	0.673011055417288	0.07074924186723555	0.6778926922896473	0.6602987352444619	0.14684361846871777	0.8864360748202653	0.6034218147726603	0.2364387941929134	0.26741167861023996	-0.7465869979551493	0.24236582669941564	0.13507224512094412	-0.9628288229517635	0.23048450808045848	0.11092708960688367	-0.8240913550222319	0.3808148465316832	0.28558698137132627	-0.6599772060487863	0.4357412544250417	0.42785317342527235	-0.42363735617928844	0.3786927962556667	0.22671033883792985	-0.23674233072397974	0.31944030544457896	0.10007065307587226	-0.15938735054214953	0.3377635230422688	0.12445260757903137	-0.14777330057324442	0.3702458114343564	0.20783882631686698	-0.13927789705210025	0.07576149196088978	0.29265339231938786	-0.6657115571926981	0.008410550677293962	0.420784625400531	-0.41921800709333273	0.047506389939991955	0.2766700111829784	-0.21993470656702208	0.09510263661626	0.17154038701433472	-0.1628628478342133	0.07660391460695566	0.18075074913027758	-0.13042928820307995	0.05065017455545294	0.21765795319260636	-0.11751177817789438
50	0.8333333333333334	0.33509772077437416	0.48775514440361173	-0.20161745381797194	0.3132583244797144	0.6165553150206984	0.18617767816685174	0.2934445073010437	0.8728399717741906	0.5699444923615684	0.291513530561124	0.639793114469074	0.6897920040339743	0.3568387806864814	0.6903464414198914	0.6721821995253889	0.27839943548709334	0.9160075133866821	0.5890759466688525	0.112113843563955	0.4906263581557602	-0.20153202897346092	0.1176594930323764	0.6405105453249116	0.19200193112026334	0.13104664543234343	0.8019485876888871	0.5642056931239117	0.12696486396767784	0.6372340432338993	0.6731520401598273	0.07066287386988344	0.6779107574762208	0.6604551536180999	0.14672862264085493	0.88643057236946	0.603774519598475	0.23253497889976482	0.26667099003883593	-0.7462675830361878	0.23938974771350555	0.12481416096611621	-0.9594173256887456	0.23038090979735146	0.11077581364387094	-0.8239103130911434	0.381064315685744	0.28707036199780894	-0.6566099831491132	0.43596295953088426	0.4272371580162435	-0.42733242040367236	0.3861531141458928	0.2156349973135249	-0.2365395863888728	0.3272305407868359	0.10249659970838643	-0.15975667134946198	0.34578788063650545	0.13558082787457335	-0.14828488451453617	0.3735103650275597	0.21654095264267717	-0.14362236056194294	0.0757939534118846	0.29281715119216967	-0.6656790628751128	0.008547710090562885	0.4207758875982384	-0.41924085548114615	0.04025937352556858	0.2609274131809326	-0.22267033831429864	0.08844708170068219	0.1797705050309809	-0.1674339315557303	0.06762582196956687	0.17515137985412374	-0.13425662380095454	0.04560831488495793	0.2276920668991473	-0.12187807417498457
51	0.85	0.3351925483562761	0.48793376665741967	-0.201566214676875	0.31338042514661885	0.6163034863379246	0.1856091075435061	0.28962574145947023	0.858043950643027	0.5675912772833325	0.2915928218440559	0.6395123835006553	0.6895724901775258	0.356910377014133	0.6899381545589113	0.6719998045357092	0.2755571921344823	0.9041821134060417	0.5949676508601379	0.11228054412311536	0.4910367359270502	-0.20127132346367899	0.11715306672892452	0.6371899504575471	0.1871759657920956	0.131089565038755	0.8019275306227195	0.5641716193010233	0.12695687503918868	0.637209991234913	0.6731210035650353	0.07059918623607206	0.6781588755657408	0.6606538518904912	0.14665619559899593	0.8863674953256019	0.6037658865901084	0.23251292969904125	0.26663052658221675	-0.7462474070542522	0.2395789634098333	0.12490534587954884	-0.9594066527028492	0.22326594022501525	0.09951124291143656	-0.8202614463650149	0.3810453025204705	0.28702017334234914	-0.6566785288288635	0.43592878324072465	0.42709696484547843	-0.42737203716339206	0.3897827028250095	0.2245652162632685	-0.24038614020470794	0.3397712993401965	0.11620733761784566	-0.15963637327114555	0.3542335037754914	0.14754073740257556	-0.15111131201800454	0.37643133151404357	0.20319856047016113	-0.1462768998824606	0.07580945072453488	0.29275204891629475	-0.6656432848654992	0.012082698179470955	0.4201413823430714	-0.42626645430384313	0.03546973722542207	0.2558467556213672	-0.22977124415458278	0.08316968593568708	0.17740646127428475	-0.171190515369046	0.060253287708421865	0.16984927186733867	-0.14134511931126184	0.04466098215818621	0.22556311812613206	-0.12588606280643447
